Coordinates
version=1
nRows=7
nColumns=46
inDegrees=yes

Units are S.I. units (second, meters, Newtons, ...)
Angles are in degrees.

endheader
time	pelvis_tilt	pelvis_list	pelvis_rotation	pelvis_tx	pelvis_ty	pelvis_tz	bb_angle	bb_tx	bb_ty	bb_tz	hip_flexion_r	hip_adduction_r	hip_rotation_r	knee_angle_r	knee_angle_r_beta	ankle_angle_r	subtalar_angle_r	mtp_angle_r	crank_angle_r	hip_flexion_l	hip_adduction_l	hip_rotation_l	knee_angle_l	knee_angle_l_beta	ankle_angle_l	subtalar_angle_l	mtp_angle_l	crank_angle_l	lumbar_extension	lumbar_bending	lumbar_rotation	arm_flex_r	arm_add_r	arm_rot_r	elbow_flex_r	pro_sup_r	wrist_flex_r	wrist_dev_r	arm_flex_l	arm_add_l	arm_rot_l	elbow_flex_l	pro_sup_l	wrist_flex_l	wrist_dev_l
      2.50000000	    -15.50653952	      0.61299026	     -1.29990116	      0.11521242	      1.09516610	     -0.27794679	      0.00000000	      0.50000000	      0.00000000	      0.25000000	     51.88739538	     -3.75188526	      0.65100074	     37.68660488	      0.65775534	    -11.01259498	    -10.17433705	      0.00000000	      0.00000000	     77.53265662	     -1.68123551	      2.91094530	    110.49588819	      1.92851706	      1.27204627	    -16.77765768	      0.00000000	      0.00000000	    -64.74188937	      3.46648381	     -2.02450281	     89.21609085	     -9.91157371	     29.47997812	     60.33155722	     35.56372153	      0.00000000	      0.00000000	     86.27609487	    -26.17451304	     34.71115459	     61.50129576	     43.56870887	      0.00000000	      0.00000000
      2.50500000	    -15.30453770	      0.83470063	     -1.34875299	      0.11561191	      1.09539901	     -0.27762234	      0.00000000	      0.50000000	      0.00000000	      0.25000000	     51.09908043	     -4.04500695	      0.34569360	     36.97538048	      0.64534213	    -11.99366303	     -9.49248518	      0.00000000	      0.00000000	     78.21270852	     -1.66511004	      2.75617668	    111.25360273	      1.94174167	      1.40257691	    -16.77875027	      0.00000000	      0.00000000	    -64.73296485	      3.12377454	     -2.20959008	     89.10569845	     -9.95964884	     29.44976614	     60.09897477	     35.53950495	      0.00000000	      0.00000000	     86.22375728	    -25.83986701	     34.72264936	     61.30460053	     43.54850110	      0.00000000	      0.00000000
      2.51000000	    -14.96000290	      0.98114577	     -1.36513450	      0.11597192	      1.09598959	     -0.27721407	      0.00000000	      0.50000000	      0.00000000	      0.25000000	     50.11293426	     -4.26652140	      0.06982330	     36.22369308	      0.63222271	    -13.09226841	     -9.00316594	      0.00000000	      0.00000000	     78.72568554	     -1.65558126	      2.69872462	    111.95828517	      1.95404070	      1.35059398	    -16.73738342	      0.00000000	      0.00000000	    -64.83942021	      2.78470114	     -2.33778723	     89.02883668	    -10.05465559	     29.47154564	     59.61717849	     35.48174724	      0.00000000	      0.00000000	     86.17976524	    -25.37000660	     34.76471835	     60.97333994	     43.51031928	      0.00000000	      0.00000000
      2.51500000	    -14.59049196	      1.07723218	     -1.35610387	      0.11631914	      1.09678019	     -0.27677646	      0.00000000	      0.50000000	      0.00000000	      0.25000000	     49.08717165	     -4.45582299	     -0.26534100	     35.47573980	      0.61916846	    -14.22450077	     -8.57056754	      0.00000000	      0.00000000	     79.17970564	     -1.64641417	      2.71123734	    112.58159441	      1.96491950	      1.33319250	    -16.68978065	      0.00000000	      0.00000000	    -64.96904148	      2.50990273	     -2.39177069	     89.00109333	    -10.16446226	     29.51858101	     58.97033312	     35.40296001	      0.00000000	      0.00000000	     86.22776962	    -24.79876367	     34.81561005	     60.46664017	     43.44496736	      0.00000000	      0.00000000
      2.52000000	    -14.27726209	      1.16326910	     -1.33766109	      0.11657847	      1.09754666	     -0.27629528	      0.00000000	      0.50000000	      0.00000000	      0.25000000	     48.16528329	     -4.64011954	     -0.62357393	     34.80947550	      0.60753996	    -15.30509983	     -8.21432466	      0.00000000	      0.00000000	     79.69518858	     -1.63795453	      2.73525736	    113.16914247	      1.97517415	      1.50931876	    -16.76271992	      0.00000000	      0.00000000	    -65.05657836	      2.19535085	     -2.49722459	     88.92368309	    -10.25194685	     29.57931386	     58.38942454	     35.32858758	      0.00000000	      0.00000000	     86.24972940	    -24.29991046	     34.93662445	     59.95511585	     43.38301076	      0.00000000	      0.00000000
      2.52500000	    -14.00807123	      1.25946006	     -1.26662529	      0.11675978	      1.09843378	     -0.27584680	      0.00000000	      0.50000000	      0.00000000	      0.25000000	     47.29340149	     -4.86397687	     -0.98807528	     34.14016942	      0.59585836	    -16.50659963	     -7.90631454	      0.00000000	      0.00000000	     80.23864001	     -1.56157720	      2.76331592	    113.62107370	      1.98306184	      1.37196988	    -16.53534676	      0.00000000	      0.00000000	    -65.08250110	      1.88725688	     -2.63751604	     88.86569648	    -10.34678309	     29.62706161	     57.80439274	     35.25247332	      0.00000000	      0.00000000	     86.32932957	    -23.80991820	     35.06876386	     59.45598823	     43.32171998	      0.00000000	      0.00000000
      2.53000000	    -13.62402691	      1.21638550	     -1.18028879	      0.11685384	      1.09951920	     -0.27530475	      0.00000000	      0.50000000	      0.00000000	      0.25000000	     46.27077988	     -4.93971650	     -1.39988324	     33.46437297	      0.58406349	    -17.80469521	     -7.93470172	      0.00000000	      0.00000000	     80.67542906	     -1.48912436	      2.99687576	    114.09613495	      1.99135322	      1.40482164	    -16.43760642	      0.00000000	      0.00000000	    -65.06240238	      1.60686181	     -2.26928053	     88.94736404	    -10.63833066	     29.77142342	     56.12829702	     35.19654014	      0.00000000	      0.00000000	     86.95211602	    -21.90302466	     35.45513711	     56.24157757	     42.92993998	      0.00000000	      0.00000000
